<?xml version="1.0" encoding="UTF-8"?>
<svg width="146px" height="40px" viewBox="0 0 146 40" version="1.1" xmlns="http://www.w3.org/2000/svg" xmlns:xlink="http://www.w3.org/1999/xlink">
    <!-- Generator: Sketch 58 (84663) - https://sketch.com -->
    <title>Group 51</title>
    <desc>Created with Sketch.</desc>
    <g id="Symbols" stroke="none" stroke-width="1" fill="none" fill-rule="evenodd">
        <g id="Navbar" transform="translate(-40.000000, -21.000000)">
            <g id="Group-51" transform="translate(40.000000, 21.000000)">
                <polygon id="Fill-1" fill="#FFFFFF" points="56.5303514 20.3407351 56.5303514 25 55.4704473 25 55.4704473 20.3407351 50 14 51.2635783 14 56.0047923 19.507657 60.7276358 14 62 14"></polygon>
                <g id="Group-50">
                    <path d="M75.9069368,18.8400588 C75.9069368,18.0615882 75.7778421,17.3741176 75.5188842,16.7776471 C75.2606947,16.1804118 74.8780211,15.678 74.3724,15.2704118 C73.8660105,14.8620588 73.2359053,14.5538824 72.4820842,14.3428235 C71.7290316,14.1317647 70.8538,14.027 69.8579263,14.027 C68.8612842,14.027 67.9837474,14.1332941 67.2245474,14.3466471 C66.4661158,14.56 65.8306316,14.8704706 65.3188632,15.2780588 C64.8070947,15.6856471 64.4205789,16.1895882 64.1593158,16.7891176 C63.8980526,17.3894118 63.7674211,18.0722941 63.7674211,18.8400588 C63.7674211,19.6185294 63.8980526,20.306 64.1593158,20.9032353 C64.4205789,21.5004706 64.8070947,22.0021176 65.3188632,22.4104706 C65.8306316,22.8180588 66.4661158,23.127 67.2245474,23.3372941 C67.9837474,23.5483529 68.8612842,23.6531176 69.8579263,23.6531176 C70.8538,23.6531176 71.7290316,23.5483529 72.4820842,23.3372941 C73.2359053,23.127 73.8660105,22.8180588 74.3724,22.4104706 C74.8780211,22.0021176 75.2606947,21.5004706 75.5188842,20.9032353 C75.7778421,20.306 75.9069368,19.6185294 75.9069368,18.8400588 M76.9512211,18.8400588 C76.9512211,19.8265294 76.7691053,20.6776471 76.4048737,21.3941765 C76.0406421,22.1114706 75.5404,22.7033529 74.9041474,23.1698235 C74.2686632,23.6362941 73.5186842,23.9811765 72.6549789,24.2052353 C71.7905053,24.4292941 70.8584105,24.5409412 69.8579263,24.5409412 C68.8520632,24.5409412 67.9145895,24.4292941 67.0447368,24.2052353 C66.1748842,23.9811765 65.4195263,23.6362941 64.7786632,23.1698235 C64.1370316,22.7033529 63.6337158,22.1114706 63.2702526,21.3941765 C62.9052526,20.6776471 62.7239053,19.8265294 62.7239053,18.8400588 C62.7239053,18.1847059 62.8076632,17.5882353 62.9767158,17.0537059 C63.145,16.5176471 63.3809053,16.0374118 63.6859684,15.6137647 C63.9894947,15.1901176 64.3583368,14.8238235 64.7901895,14.5141176 C65.2228105,14.2051765 65.7038421,13.9482353 66.2332842,13.7425294 C66.7634947,13.5375882 67.3328947,13.3861765 67.9414842,13.2875294 C68.5508421,13.1888824 69.1894,13.1391765 69.8579263,13.1391765 C70.8584105,13.1391765 71.7905053,13.2508235 72.6549789,13.4748824 C73.5186842,13.6989412 74.2686632,14.0445882 74.9041474,14.5102941 C75.5404,14.9767647 76.0406421,15.5686471 76.4048737,16.2851765 C76.7691053,17.0024706 76.9512211,17.8535882 76.9512211,18.8400588" id="Fill-2" fill="#FFFFFF"></path>
                    <path d="M90.8078505,22.3700941 C90.5711768,22.8205059 90.2169347,23.2074471 89.7466611,23.5293882 C89.2763874,23.8520941 88.6877768,24.1013882 87.9808295,24.2772706 C87.2738821,24.4531529 86.4501347,24.5410941 85.5088189,24.5410941 C84.5682716,24.5410941 83.7445242,24.4531529 83.0375768,24.2772706 C82.3298611,24.1013882 81.7397137,23.8520941 81.2671347,23.5293882 C80.7937874,23.2074471 80.4387768,22.8205059 80.2021032,22.3700941 C79.9661979,21.9196824 79.8470926,21.4195647 79.8470926,20.8712706 L79.8470926,13.3389176 L80.8667874,13.3389176 L80.8667874,20.9508 C80.8667874,21.3186235 80.9659137,21.6665647 81.1649347,21.9946235 C81.3631874,22.3219176 81.6582611,22.6086824 82.0501558,22.8533882 C82.4412821,23.0988588 82.9253874,23.2938588 83.5017032,23.4376235 C84.0780189,23.5813882 84.7473137,23.6532706 85.5088189,23.6532706 C86.2649453,23.6532706 86.9311663,23.5813882 87.5074821,23.4376235 C88.0837979,23.2938588 88.5686716,23.0988588 88.9597979,22.8533882 C89.3509242,22.6086824 89.6459979,22.3219176 89.8450189,21.9946235 C90.0432716,21.6665647 90.1431663,21.3186235 90.1431663,20.9508 L90.1431663,13.3389176 L91.1628611,13.3389176 L91.1628611,20.8712706 C91.1628611,21.4195647 91.0445242,21.9196824 90.8078505,22.3700941" id="Fill-4" fill="#FFFFFF"></path>
                    <path d="M104.721189,16.7135647 C104.721189,16.1905059 104.632821,15.7699176 104.455316,15.4502706 C104.278579,15.1298588 104.005789,14.8836235 103.639253,14.7100353 C103.271179,14.5372118 102.806284,14.4209765 102.242263,14.3620941 C101.679011,14.3039765 101.011253,14.2749176 100.238221,14.2749176 L95.8528421,14.2749176 L95.8528421,19.1675059 L100.238221,19.1675059 C100.537905,19.1675059 100.857568,19.1690353 101.197211,19.1720941 C101.537621,19.1743882 101.873421,19.1590941 102.206147,19.1239176 C102.537337,19.0895059 102.854695,19.0275647 103.157453,18.9403882 C103.458674,18.8516824 103.726084,18.7178588 103.957379,18.5358588 C104.188674,18.3546235 104.373863,18.1175647 104.512947,17.8246824 C104.651263,17.5318 104.721189,17.1609176 104.721189,16.7135647 M105.764705,16.7135647 C105.764705,17.2626235 105.674032,17.7474471 105.491916,18.1688 C105.3098,18.5893882 105.023179,18.9442118 104.631284,19.2317412 C104.239389,19.5192706 103.735305,19.7372118 103.117495,19.8840353 C102.500453,20.0300941 101.757389,20.1035059 100.886768,20.1035059 L95.8528421,20.1035059 L95.8528421,24.3254471 L94.8331474,24.3254471 L94.8331474,13.3389176 L100.886768,13.3389176 C101.757389,13.3389176 102.500453,13.4123294 103.117495,13.5591529 C103.735305,13.7059765 104.239389,13.9200941 104.631284,14.2022706 C105.023179,14.4852118 105.3098,14.8369765 105.491916,15.2583294 C105.674032,15.6789176 105.764705,16.1645059 105.764705,16.7135647" id="Fill-6" fill="#FFFFFF"></path>
                    <polygon id="Fill-8" fill="#FFFFFF" points="108.5145 24.3252176 108.5145 13.3394529 109.534195 13.3394529 109.534195 23.3892176 117.724795 23.3892176 117.724795 24.3252176"></polygon>
                    <path d="M125.153352,14.3067294 L121.840688,20.5115529 L128.457562,20.5115529 L125.153352,14.3067294 Z M130.496952,24.3251412 L128.954731,21.4223176 L121.34352,21.4223176 L119.802067,24.3251412 L118.684015,24.3251412 L124.550141,13.3393765 L125.748878,13.3393765 L131.615004,24.3251412 L130.496952,24.3251412 Z" id="Fill-10" fill="#FFFFFF"></path>
                    <path d="M145.259165,20.3112 C145.259165,21.0307882 145.087807,21.6532588 144.745092,22.1778471 C144.403144,22.7032 143.930565,23.1390824 143.32966,23.4854941 C142.728755,23.8319059 142.018734,24.0888471 141.201134,24.2570824 C140.381997,24.4253176 139.496776,24.5086706 138.545471,24.5086706 C137.511944,24.5086706 136.562944,24.4436706 135.698471,24.3129059 C134.833228,24.1821412 134.077102,24.0001412 133.429323,23.7653765 L133.429323,22.6060824 C133.778186,22.7498471 134.136271,22.8829059 134.505881,23.0052588 C134.875492,23.1283765 135.269692,23.2369647 135.687713,23.3294941 C136.106502,23.4227882 136.553723,23.4946706 137.028607,23.5451412 C137.50426,23.5963765 138.019102,23.6216118 138.573902,23.6216118 C139.356155,23.6216118 140.089997,23.5482 140.77466,23.4021412 C141.460092,23.2553176 142.055618,23.0419647 142.564313,22.7620824 C143.072239,22.4822 143.474892,22.1373176 143.770734,21.7266706 C144.066576,21.3160235 144.215649,20.8442 144.215649,20.3112 L144.215649,18.2327294 C143.954386,18.5791412 143.634723,18.9110235 143.257428,19.2276118 C142.879365,19.5449647 142.457502,19.8248471 141.993376,20.0672588 C141.529249,20.3104353 141.024397,20.5046706 140.481123,20.6507294 C139.937849,20.7975529 139.364607,20.8709647 138.761397,20.8709647 C138.075965,20.8709647 137.468913,20.8082588 136.939471,20.6828471 C136.40926,20.5582 135.947439,20.3861412 135.553239,20.1674353 C135.159039,19.9487294 134.827081,19.6894941 134.554292,19.3874353 C134.283039,19.0869059 134.064807,18.7588471 133.898828,18.4040235 C133.732849,18.0492 133.613744,17.6783176 133.539976,17.2890824 C133.466207,16.8998471 133.429323,16.5052588 133.429323,16.1053176 L133.429323,13.3393765 L134.474376,13.3393765 L134.474376,15.8866118 C134.474376,16.4991412 134.548913,17.0550824 134.697986,17.5552 C134.84706,18.0560824 135.093723,18.4843176 135.435671,18.8414353 C135.776849,19.1977882 136.226376,19.4738471 136.783481,19.6680824 C137.339818,19.8623176 138.028323,19.9594353 138.84746,19.9594353 C139.482944,19.9594353 140.066944,19.8753176 140.59946,19.7078471 C141.131207,19.5403765 141.616849,19.3140235 142.056386,19.0287882 C142.495923,18.7443176 142.895502,18.4154941 143.254355,18.0430824 C143.611671,17.6699059 143.932102,17.2791412 144.215649,16.8692588 L144.215649,13.3393765 L145.259165,13.3393765 L145.259165,20.3112 Z" id="Fill-12" fill="#FFFFFF"></path>
                    <polygon id="Fill-14" fill="#D39F2E" points="39.4834716 14.6670588 39.6648189 15.4317647 38.8848716 15.6099412 38.7027558 14.8452353"></polygon>
                    <polygon id="Stroke-16" stroke="#D39F2E" stroke-width="0.5" points="39.4834716 14.6670588 39.6648189 15.4317647 38.8848716 15.6099412 38.7027558 14.8452353"></polygon>
                    <path d="M24.18782,18.1530471 L24.3691674,18.9177529 L22.75702,19.2855765 L22.5749042,18.5201059 L24.18782,18.1530471 Z M27.4128832,17.4181647 L27.5949989,18.1828706 L25.9820832,18.5506941 L25.8007358,17.7852235 L27.4128832,17.4181647 Z M30.6394832,16.6825176 L30.8208305,17.4479882 L29.2079147,17.8158118 L29.0265674,17.0503412 L30.6394832,16.6825176 Z M33.8645463,15.9476353 L34.0458937,16.7131059 L32.4329779,17.0801647 L32.2516305,16.3154588 L33.8645463,15.9476353 Z M37.0903779,15.2127529 L37.2717253,15.9774588 L35.6588095,16.3452824 L35.4766937,15.5798118 L37.0903779,15.2127529 Z" id="Fill-18" fill="#D39F2E"></path>
                    <path d="M24.18782,18.1530471 L24.3691674,18.9177529 L22.75702,19.2855765 L22.5749042,18.5201059 L24.18782,18.1530471 Z M27.4128832,17.4181647 L27.5949989,18.1828706 L25.9820832,18.5506941 L25.8007358,17.7852235 L27.4128832,17.4181647 Z M30.6394832,16.6825176 L30.8208305,17.4479882 L29.2079147,17.8158118 L29.0265674,17.0503412 L30.6394832,16.6825176 Z M33.8645463,15.9476353 L34.0458937,16.7131059 L32.4329779,17.0801647 L32.2516305,16.3154588 L33.8645463,15.9476353 Z M37.0903779,15.2127529 L37.2717253,15.9774588 L35.6588095,16.3452824 L35.4766937,15.5798118 L37.0903779,15.2127529 Z" id="Stroke-20" stroke="#D39F2E" stroke-width="0.5"></path>
                    <polygon id="Fill-22" fill="#D39F2E" points="20.0177526 18.6062882 20.4073421 19.0146412 20.9621421 18.8884647 21.1442579 19.6531706 20.1376263 19.8825824 19.4314474 19.1431118"></polygon>
                    <polygon id="Stroke-24" stroke="#D39F2E" stroke-width="0.5" points="20.0177526 18.6062882 20.4073421 19.0146412 20.9621421 18.8884647 21.1442579 19.6531706 20.1376263 19.8825824 19.4314474 19.1431118"></polygon>
                    <path d="M17.7395379,16.2199471 L18.8783379,17.4136529 L18.2935695,17.9497118 L17.1540011,16.7567706 L17.7395379,16.2199471 Z M15.4619379,13.8333 L16.6007379,15.0270059 L16.0152011,15.5638294 L14.8756326,14.3701235 L15.4619379,13.8333 Z M13.1835695,11.4474176 L14.3231379,12.6403588 L13.7376011,13.1771824 L12.5988011,11.9834765 L13.1835695,11.4474176 Z M10.9059695,9.06077059 L12.0447695,10.2544765 L11.4592326,10.7905353 L10.3212011,9.59759412 L10.9059695,9.06077059 Z M8.62836947,6.67488824 L9.76716947,7.86782941 L9.18163263,8.40465294 L8.04283263,7.21094706 L8.62836947,6.67488824 Z" id="Fill-26" fill="#D39F2E"></path>
                    <path d="M17.7395379,16.2199471 L18.8783379,17.4136529 L18.2935695,17.9497118 L17.1540011,16.7567706 L17.7395379,16.2199471 Z M15.4619379,13.8333 L16.6007379,15.0270059 L16.0152011,15.5638294 L14.8756326,14.3701235 L15.4619379,13.8333 Z M13.1835695,11.4474176 L14.3231379,12.6403588 L13.7376011,13.1771824 L12.5988011,11.9834765 L13.1835695,11.4474176 Z M10.9059695,9.06077059 L12.0447695,10.2544765 L11.4592326,10.7905353 L10.3212011,9.59759412 L10.9059695,9.06077059 Z M8.62836947,6.67488824 L9.76716947,7.86782941 L9.18163263,8.40465294 L8.04283263,7.21094706 L8.62836947,6.67488824 Z" id="Stroke-28" stroke="#D39F2E" stroke-width="0.5"></path>
                    <polygon id="Fill-30" fill="#D39F2E" points="6.94183895 4.90772941 7.48972316 5.48125882 6.90418632 6.01808235 6.35630211 5.44455294"></polygon>
                    <polygon id="Stroke-32" stroke="#D39F2E" stroke-width="0.5" points="6.94183895 4.90772941 7.48972316 5.48125882 6.90418632 6.01808235 6.35630211 5.44455294"></polygon>
                    <path d="M39.2268189,15.1830824 L26.2358926,1.57284706 L20.7409137,19.2872588 L33.7326084,32.8974941 L39.2268189,15.1830824 Z M25.8731979,0.0426705882 L40.1281768,14.9773765 L34.0953032,34.4284353 L19.8403242,19.4929647 L25.8731979,0.0426705882 Z" id="Fill-34" fill="#D39F2E"></path>
                    <path d="M39.2268189,15.1830824 L26.2358926,1.57284706 L20.7409137,19.2872588 L33.7326084,32.8974941 L39.2268189,15.1830824 Z M25.8731979,0.0426705882 L40.1281768,14.9773765 L34.0953032,34.4284353 L19.8403242,19.4929647 L25.8731979,0.0426705882 Z" id="Stroke-36" stroke="#D39F2E" stroke-width="0.5"></path>
                    <path d="M19.97426,19.0588412 L25.4684705,1.34442941 L6.94721789,5.56560588 L1.45223895,23.2800176 L19.97426,19.0588412 Z M26.6403126,0.270782353 L20.6066705,19.7218412 L0.281933684,24.3536647 L6.31557579,4.90337059 L26.6403126,0.270782353 Z" id="Fill-38" fill="#D39F2E"></path>
                    <path d="M19.97426,19.0588412 L25.4684705,1.34442941 L6.94721789,5.56560588 L1.45223895,23.2800176 L19.97426,19.0588412 Z M26.6403126,0.270782353 L20.6066705,19.7218412 L0.281933684,24.3536647 L6.31557579,4.90337059 L26.6403126,0.270782353 Z" id="Stroke-40" stroke="#D39F2E" stroke-width="0.5"></path>
                    <path d="M15.0575947,37.6007412 L14.8747105,38.2018 L14.1062895,37.9769765 L14.2891737,37.3766824 L15.0575947,37.6007412 Z M15.9735526,34.5893294 L15.5155737,36.0950353 L14.7471526,35.8702118 L15.2051316,34.3645059 L15.9735526,34.5893294 Z M16.8895105,31.5771529 L16.4315316,33.0828588 L15.6631105,32.8588 L16.1210895,31.3530941 L16.8895105,31.5771529 Z M17.8054684,28.5657412 L17.3467211,30.0714471 L16.5790684,29.8466235 L17.0370474,28.3409176 L17.8054684,28.5657412 Z M18.7214263,25.5535647 L18.2634474,27.0592706 L17.4950263,26.8352118 L17.9537737,25.3295059 L18.7214263,25.5535647 Z M19.6373842,22.5421529 L19.1794053,24.0478588 L18.4109842,23.8230353 L18.8689632,22.3173294 L19.6373842,22.5421529 Z M20.5533421,19.5299765 L20.0953632,21.0356824 L19.3269421,20.8116235 L19.7849211,19.3059176 L20.5533421,19.5299765 Z" id="Fill-42" fill="#D39F2E"></path>
                    <path d="M15.0575947,37.6007412 L14.8747105,38.2018 L14.1062895,37.9769765 L14.2891737,37.3766824 L15.0575947,37.6007412 Z M15.9735526,34.5893294 L15.5155737,36.0950353 L14.7471526,35.8702118 L15.2051316,34.3645059 L15.9735526,34.5893294 Z M16.8895105,31.5771529 L16.4315316,33.0828588 L15.6631105,32.8588 L16.1210895,31.3530941 L16.8895105,31.5771529 Z M17.8054684,28.5657412 L17.3467211,30.0714471 L16.5790684,29.8466235 L17.0370474,28.3409176 L17.8054684,28.5657412 Z M18.7214263,25.5535647 L18.2634474,27.0592706 L17.4950263,26.8352118 L17.9537737,25.3295059 L18.7214263,25.5535647 Z M19.6373842,22.5421529 L19.1794053,24.0478588 L18.4109842,23.8230353 L18.8689632,22.3173294 L19.6373842,22.5421529 Z M20.5533421,19.5299765 L20.0953632,21.0356824 L19.3269421,20.8116235 L19.7849211,19.3059176 L20.5533421,19.5299765 Z" id="Stroke-44" stroke="#D39F2E" stroke-width="0.5"></path>
                    <polygon id="Fill-46" fill="#D39F2E" points="1.13365158 23.8147765 14.5986937 37.9213059 33.6755147 33.5739529 33.8568621 34.3394235 14.3297463 38.7892471 0.548114737 24.3516"></polygon>
                    <polygon id="Stroke-48" stroke="#D39F2E" stroke-width="0.5" points="1.13365158 23.8147765 14.5986937 37.9213059 33.6755147 33.5739529 33.8568621 34.3394235 14.3297463 38.7892471 0.548114737 24.3516"></polygon>
                </g>
            </g>
        </g>
    </g>
</svg>